PathFileType	4	(X/Y/Z)	C:/Users/beibeiliu/ov580/test_trc/User1\sequence.18_training_dense_right.trc
DataRate	CameraRate	NumFrames	NumMarkers	Units	OrigDataRate	OrigDataStartFrame	OrigNumFrames
120	120	10	19	mm	120	215	286
Frame#	Time	ThumbCMC			ThumbMCP			ThumbIP			ThumbTip			IndexMCP			IndexPIP			IndexTip			MiddleMCP			MiddlePIP			MiddleTip			RingMCP			RingPIP			RingTip			PinkyMCP			PinkyPIP			PinkyTip			BackHand1			BackHand2			BackHand3	
		X0	Y0	Z0	X1	Y1	Z1	X2	Y2	Z2	X3	Y3	Z3	X4	Y4	Z4	X5	Y5	Z5	X6	Y6	Z6	X7	Y7	Z7	X8	Y8	Z8	X9	Y9	Z9	X10	Y10	Z10	X11	Y11	Z11	X12	Y12	Z12	X13	Y13	Z13	X14	Y14	Z14	X15	Y15	Z15	X16	Y16	Z16	X17	Y17	Z17	X18	Y18	Z18	
214	1.78333	226.447	-20.5578	66.3917	232.967	-27.6159	28.4014	224.058	-47.4574	0.904453	196.506	-56.4568	-8.76056	236.85	-94.97	19.8756	233.121	-92.7462	-11.7515	235.57	-56.5604	-7.23627	215.665	-106.204	12.4704	212.26	-96.2759	-19.3775	212.457	-58.3784	-2.32053	194.859	-104.207	10.3771	193.817	-86.9418	-18.6781	189.78	-58.4961	-1.77953	169.033	-92.9856	18.1891	178.67	-81.5467	-8.58945	180.415	-51.4432	-1.46681	179.086	-78.6962	65.3675	169.329	-58.2205	91.8824	207.575	-57.5951	82.5288	
215	1.79167	226.707	-21.8556	65.4223	234.061	-29.4596	26.0447	224.604	-44.495	2.941	196.924	-56.1204	-8.99087	235.077	-95.447	18.2208	235.147	-90.6268	-14.0183	234.923	-55.5931	-7.9087	217.815	-105.705	9.89161	215.288	-94.2558	-20.3014	210.622	-56.9654	-1.2683	191.549	-103.124	9.66506	196.466	-84.668	-18.6597	192.994	-58.3403	-2.88269	172.256	-92.3578	17.9747	177.193	-83.512	-9.96187	181.274	-51.5547	-5.60754	181.352	-75.2268	66.5218	172.216	-55.749	91.5182	212.691	-59.0378	82.1998	
216	1.8	229.61	-20.1669	65.5117	233.983	-26.5631	26.5761	222.662	-44.8108	2.46455	196.075	-55.663	-8.47826	238.719	-92.7004	18.8043	236.354	-88.7422	-13.5008	234.138	-52.4738	-7.79756	218.15	-102.324	12.7686	215.998	-87.809	-20.7329	216.625	-55.0584	-2.46882	196.412	-102.217	8.66019	196.019	-86.3503	-18.599	194.503	-55.9441	0.717023	172.958	-89.8924	17.4976	182.108	-79.1679	-8.26116	179.223	-47.0372	-2.11735	184.362	-76.575	64.8269	171.858	-57.735	89.7522	209.431	-55.849	82.2869	
217	1.80833	229.194	-18.482	65.5696	237.25	-23.1094	24.873	225.487	-42.8138	-1.11406	198.664	-50.7038	-7.81934	242.91	-90.6431	17.4416	240.867	-84.3818	-15.734	237.329	-48.4666	-7.0575	217.979	-101.758	7.03297	216.981	-85.2543	-21.8477	214.5	-51.7455	1.39046	197.61	-99.8231	7.05515	195.596	-81.0544	-19.4219	195.682	-53.4709	0.110908	173.642	-87.8756	16.2485	181.228	-77.2922	-10.1191	185.053	-46.0504	-2.36	182.898	-72.2104	63.8537	174.129	-57.0706	88.9394	212.588	-56.2497	80.2969	
218	1.81667	230.34	-16.8488	65.3391	236.939	-22.324	23.3647	226.086	-40.637	-2.39757	198.913	-50.6853	-11.8376	244.156	-86.6031	14.8707	242.137	-78.5842	-17.1702	236.594	-43.2357	-5.52075	222.652	-98.1327	7.08847	218.318	-80.489	-23.615	215.504	-48.2513	1.08222	199.625	-96.7524	4.95346	196.555	-80.2761	-20.8757	194.971	-52.1687	0.104379	178.706	-84.534	16.6564	181.493	-75.2153	-12.1698	185.179	-41.7728	2.55605	186.498	-71.5592	66.2952	179.032	-53.7029	91.1993	213.653	-56.1353	79.6042	
219	1.825	229.504	-13.9469	64.2472	238.667	-18.0515	21.6241	227.104	-38.2727	-2.66455	199.448	-48.2589	-11.4589	241.543	-82.7275	13.6167	239.427	-72.8572	-18.5745	237.073	-40.8876	-7.58981	222.644	-96.4077	4.60559	220.086	-79.1612	-23.9167	217.308	-46.4558	-1.48831	198.154	-94.9833	4.2607	199.896	-75.9206	-20.4263	197.26	-49.0131	1.40261	180.621	-83.1872	12.9135	184.906	-71.0189	-10.7463	183.956	-39.9438	1.14719	187.285	-69.5634	63.2092	180.787	-50.8642	89.3211	216.886	-49.8183	80.0301	
220	1.83333	234.114	-12.4725	64.514	237.598	-19.4528	22.2181	227.518	-34.491	-3.53226	198.123	-48.1261	-10.2926	247.151	-81.6764	9.78944	243.6	-68.773	-20.5525	241.443	-36.5091	-6.56696	222.018	-94.6607	2.89827	223.522	-72.7722	-24.9902	215.369	-45.3829	-0.118792	200.32	-91.4793	7.92657	198.686	-73.6045	-21.3163	198.044	-47.8614	0.84906	180.408	-79.5286	12.4351	182.375	-64.2023	-14.1146	186.761	-37.0469	1.23752	186.774	-69.0615	61.9217	180.975	-47.4377	89.9147	218.919	-53.1038	75.6097	
221	1.84167	234.37	-12.9771	62.567	239.942	-14.7604	21.0427	228.173	-31.1907	-1.44636	198.648	-45.341	-10.4593	244.308	-80.6767	8.14715	240.962	-69.3548	-20.4829	242.17	-35.1102	-7.82569	221.608	-91.1991	3.81154	225.679	-70.3925	-25.6143	218.184	-43.0437	-0.567643	198.805	-88.5161	5.66986	199.074	-68.8384	-22.4236	199.807	-44.9413	-0.828241	175.147	-78.8648	11.4601	184.662	-65.405	-12.9545	182.776	-34.4627	-2.70325	188.23	-66.9899	63.6752	182.477	-46.3579	89.3793	218.137	-51.4165	78.5471	
222	1.85	234.915	-13.4489	61.3926	240.091	-14.114	23.8149	229.936	-32.6503	-4.82059	200.878	-40.4393	-12.6302	244.922	-78.4007	6.10118	240.384	-64.462	-22.2917	241.136	-34.5461	-8.55643	223.239	-89.1206	3.25878	225.083	-69.1181	-27.2188	220.226	-40.8035	-3.46865	200.926	-87.3265	-0.027718	199.669	-67.0238	-23.5261	197.634	-41.9402	1.4581	177.302	-77.6177	6.77781	184.885	-60.1714	-15.2917	188.113	-33.1646	-3.32418	186.198	-66.7712	60.8401	182.062	-48.1727	85.4578	220.877	-50.9617	74.6064	
223	1.85833	232.452	-13.0709	62.1187	241.584	-16.2938	21.5144	230.302	-27.691	0.0756437	197.562	-40.8161	-10.1311	246.452	-75.5397	6.12874	245.784	-63.5791	-24.1363	240.448	-30.9837	-5.37724	225.162	-87.4376	-2.31249	222.669	-64.7241	-27.9872	218.916	-39.4445	-3.10242	199.958	-86.1744	-3.76243	202.193	-62.2177	-24.8898	197.326	-39.0273	0.798961	178.055	-73.4302	11.016	186.306	-57.3679	-15.8626	183.375	-29.0033	-0.216158	190.248	-65.9421	60.1347	183.062	-49.5628	86.3115	219.854	-49.9433	77.2245	
